# xmcd
#
# Track frame offsets:
#	150
#	9042
#	25320
#	57177
#	66897
#	82047
#	98655
#	121572
#	128740
#	152267
#	163677
#	231460
#
# Disc length: 3411 seconds
#
# Revision: 12
# Processed by: cddbd v1.5.2PL0 Copyright (c) Steve Scherf et al.
# Submitted via: dBpowerAMP V4.0
#
DISCID=850d510c
DTITLE=Various Artist - Solesides Greatest Bumps CD2
DYEAR=2000
DGENRE=Hip Hop
TTITLE0=Latyrx (Last Chance to Comprehend) - Latyrx
TTITLE1=Say That - Latyrx
TTITLE2=Freestyle Rapping - The SoleSides Crew
TTITLE3=Rhymes for the Deaf, Dumb, and Blind - Blackalicious
TTITLE4=Entropy (Part C- Count and Estimate) - DJ Shadow
TTITLE5=Fully Charged on Planet X  - Chief Xcel
TTITLE6=The Quickening - Lateef the Truth Speaker
TTITLE7=Hot Breath - Mack B Dog
TTITLE8=Balcony Beach (feat Joyo Velarde) - Lyrics Born
TTITLE9=Lateef's Freestyle - Lateef the Truth Speaker
TTITLE10=Blue Flames - Quannum MCs
TTITLE11=Unlisted Track - SoleSides (Various Artists)
EXTD=© Quannum Projects/Ninja Tune
EXTT0=
EXTT1=
EXTT2=
EXTT3=
EXTT4=
EXTT5=
EXTT6=
EXTT7=
EXTT8=
EXTT9=
EXTT10=
EXTT11=
PLAYORDER=
